<svg width="20" height="20" viewBox="0 0 20 20" fill="none" xmlns="http://www.w3.org/2000/svg">
<path d="M4.44458 7.22135H15.5557H4.44458ZM4.44458 7.22135V13.3325C4.44458 14.1102 4.44458 14.4991 4.59597 14.7964C4.72912 15.0577 4.94159 15.2701 5.20291 15.4033C5.49944 15.5547 5.88833 15.5547 6.66472 15.5547H13.3356C14.1119 15.5547 14.5001 15.5547 14.7967 15.4033C15.0585 15.27 15.271 15.0575 15.4043 14.7964C15.5557 14.4991 15.5557 14.1116 15.5557 13.3352V7.22135M4.44458 7.22135V6.6658C4.44458 5.88802 4.44458 5.49913 4.59597 5.20191C4.7293 4.9401 4.94111 4.7283 5.20291 4.59497C5.50014 4.44358 5.88902 4.44358 6.6668 4.44358H7.22236M15.5557 7.22135V6.66372C15.5557 5.88733 15.5557 5.49844 15.4043 5.20191C15.271 4.94048 15.0582 4.728 14.7967 4.59497C14.5001 4.44358 14.1112 4.44358 13.3335 4.44358H12.7779M12.7779 3.05469V4.44358V3.05469ZM12.7779 4.44358H7.22236H12.7779ZM7.22236 3.05469V4.44358V3.05469Z" fill="white"/>
<path d="M4.44458 7.22135H15.5557M4.44458 7.22135V13.3325C4.44458 14.1102 4.44458 14.4991 4.59597 14.7964C4.72912 15.0577 4.94159 15.2701 5.20291 15.4033C5.49944 15.5547 5.88833 15.5547 6.66472 15.5547H13.3356C14.1119 15.5547 14.5001 15.5547 14.7967 15.4033C15.0585 15.27 15.271 15.0575 15.4043 14.7964C15.5557 14.4991 15.5557 14.1116 15.5557 13.3352V7.22135M4.44458 7.22135V6.6658C4.44458 5.88802 4.44458 5.49913 4.59597 5.20191C4.7293 4.9401 4.94111 4.7283 5.20291 4.59497C5.50014 4.44358 5.88902 4.44358 6.6668 4.44358H7.22236M15.5557 7.22135V6.66372C15.5557 5.88733 15.5557 5.49844 15.4043 5.20191C15.271 4.94048 15.0582 4.728 14.7967 4.59497C14.5001 4.44358 14.1112 4.44358 13.3335 4.44358H12.7779M7.22236 4.44358H12.7779M7.22236 4.44358V3.05469M12.7779 4.44358V3.05469" stroke="white" stroke-width="1.66667" stroke-linecap="round" stroke-linejoin="round"/>
</svg>
