<svg width="20" height="20" viewBox="0 0 20 20" fill="none" xmlns="http://www.w3.org/2000/svg">
<path d="M12.5 5.41667H7.5M12.5 5.41667C14.8567 5.41667 16.0358 5.41667 16.7675 6.14917C17.5 6.88083 17.5 8.06 17.5 10.4167V12.5C17.5 14.8567 17.5 16.0358 16.7675 16.7675C16.0358 17.5 14.8567 17.5 12.5 17.5H7.5C5.14333 17.5 3.96417 17.5 3.2325 16.7675C2.5 16.0358 2.5 14.8567 2.5 12.5V10.4167C2.5 8.06 2.5 6.88083 3.2325 6.14917C3.96417 5.41667 5.14333 5.41667 7.5 5.41667M12.5 5.41667V5C12.5 3.82083 12.5 3.23167 12.1333 2.86667C11.7675 2.5 11.1792 2.5 10 2.5C8.82083 2.5 8.23167 2.5 7.86667 2.86667C7.5 3.2325 7.5 3.82167 7.5 5V5.41667" stroke="white" stroke-width="1.5" stroke-linecap="round" stroke-linejoin="round"/>
<path d="M17.5 8.74996C16.616 8.74996 15.7681 8.39877 15.143 7.77365C14.5179 7.14853 14.1667 6.30068 14.1667 5.41663" stroke="white" stroke-width="1.5" stroke-linecap="round"/>
<path d="M7.70831 10L7.08331 10.625L7.70831 11.25L8.33331 10.625L7.70831 10Z" stroke="white" stroke-width="1.5" stroke-linecap="round" stroke-linejoin="round"/>
<path d="M2.5 14.1666C3.38405 14.1666 4.2319 14.5178 4.85702 15.1429C5.48214 15.7681 5.83333 16.6159 5.83333 17.5M2.5 8.74996C3.38405 8.74996 4.2319 8.39877 4.85702 7.77365C5.48214 7.14853 5.83333 6.30068 5.83333 5.41663M17.5 14.1666C16.6159 14.1666 15.7681 14.5178 15.143 15.1429C14.5179 15.7681 14.1667 16.6159 14.1667 17.5" stroke="white" stroke-width="1.5" stroke-linecap="round"/>
<path d="M11.6667 14L10.4167 13.75L11.4167 12.75L11.6667 14Z" stroke="white" stroke-width="1.5" stroke-linecap="round" stroke-linejoin="round"/>
<path d="M12.0833 9.16663V9.17496" stroke="white" stroke-width="2.5" stroke-linecap="round" stroke-linejoin="round"/>
</svg>
