<svg width="20" height="20" viewBox="0 0 20 20" fill="none" xmlns="http://www.w3.org/2000/svg">
<path d="M10 14.1667C10.2361 14.1667 10.4342 14.0867 10.5942 13.9267C10.7542 13.7667 10.8339 13.5689 10.8333 13.3333C10.8328 13.0978 10.7528 12.9 10.5933 12.74C10.4339 12.58 10.2361 12.5 10 12.5C9.76389 12.5 9.56611 12.58 9.40667 12.74C9.24722 12.9 9.16722 13.0978 9.16667 13.3333C9.16611 13.5689 9.24611 13.7669 9.40667 13.9275C9.56722 14.0881 9.765 14.1678 10 14.1667ZM10 10.8333C10.2361 10.8333 10.4342 10.7533 10.5942 10.5933C10.7542 10.4333 10.8339 10.2356 10.8333 10V6.66667C10.8333 6.43056 10.7533 6.23278 10.5933 6.07333C10.4333 5.91389 10.2356 5.83389 10 5.83333C9.76444 5.83278 9.56667 5.91278 9.40667 6.07333C9.24667 6.23389 9.16667 6.43167 9.16667 6.66667V10C9.16667 10.2361 9.24667 10.4342 9.40667 10.5942C9.56667 10.7542 9.76444 10.8339 10 10.8333ZM7.5625 17.5C7.34028 17.5 7.12861 17.4583 6.9275 17.375C6.72639 17.2917 6.54917 17.1736 6.39583 17.0208L2.97917 13.6042C2.82639 13.4514 2.70833 13.2742 2.625 13.0725C2.54167 12.8708 2.5 12.6594 2.5 12.4383V7.56333C2.5 7.34111 2.54167 7.12944 2.625 6.92833C2.70833 6.72722 2.82639 6.55 2.97917 6.39667L6.39583 2.98C6.54861 2.82722 6.72583 2.70917 6.9275 2.62583C7.12917 2.5425 7.34083 2.50056 7.5625 2.5H12.4375C12.6597 2.5 12.8717 2.54167 13.0733 2.625C13.275 2.70833 13.4519 2.82639 13.6042 2.97917L17.0208 6.39583C17.1736 6.54861 17.2917 6.72583 17.375 6.9275C17.4583 7.12917 17.5 7.34083 17.5 7.5625V12.4375C17.5 12.6597 17.4583 12.8717 17.375 13.0733C17.2917 13.275 17.1736 13.4519 17.0208 13.6042L13.6042 17.0208C13.4514 17.1736 13.2742 17.2917 13.0725 17.375C12.8708 17.4583 12.6592 17.5 12.4375 17.5H7.5625Z" fill="white"/>
</svg>
