<svg width="20" height="20" viewBox="0 0 20 20" fill="none" xmlns="http://www.w3.org/2000/svg">
<path d="M14.1666 18.3327C13.0139 18.3327 12.0314 17.9263 11.2191 17.1135C10.4069 16.3007 10.0005 15.3182 9.99998 14.166C9.99942 13.0138 10.4058 12.0313 11.2191 11.2185C12.0325 10.4057 13.015 9.99935 14.1666 9.99935C15.3183 9.99935 16.3011 10.4057 17.115 11.2185C17.9289 12.0313 18.335 13.0138 18.3333 14.166C18.3316 15.3182 17.9253 16.301 17.1141 17.1144C16.303 17.9277 15.3205 18.3338 14.1666 18.3327ZM3.33331 9.24935V5.31185C3.33331 4.96463 3.43415 4.65213 3.63581 4.37435C3.83748 4.09657 4.09776 3.89518 4.41665 3.77018L9.41665 1.89518C9.61109 1.82574 9.80553 1.79102 9.99998 1.79102C10.1944 1.79102 10.3889 1.82574 10.5833 1.89518L15.5833 3.77018C15.9028 3.89518 16.1633 4.09657 16.365 4.37435C16.5666 4.65213 16.6672 4.96463 16.6666 5.31185V7.85352C16.6666 8.08963 16.5625 8.28074 16.3541 8.42685C16.1458 8.57296 15.9236 8.61102 15.6875 8.54102C15.4375 8.47157 15.1875 8.41963 14.9375 8.38518C14.6875 8.35074 14.4305 8.33324 14.1666 8.33268C12.5555 8.33268 11.1805 8.90213 10.0416 10.041C8.90276 11.1799 8.33331 12.5549 8.33331 14.166C8.33331 14.6105 8.38553 15.0446 8.48998 15.4685C8.59442 15.8924 8.74359 16.3194 8.93748 16.7494C9.06248 17.0132 9.02442 17.2494 8.82331 17.4577C8.6222 17.666 8.38942 17.7077 8.12498 17.5827C7.54165 17.2771 7.00692 16.9021 6.52081 16.4577C6.0347 16.0132 5.60415 15.5271 5.22915 14.9993C4.63192 14.1799 4.16665 13.2805 3.83331 12.301C3.49998 11.3216 3.33331 10.3043 3.33331 9.24935ZM14.1666 14.166C14.5139 14.166 14.8091 14.0446 15.0525 13.8018C15.2958 13.5591 15.4172 13.2638 15.4166 12.916C15.4161 12.5682 15.2947 12.2732 15.0525 12.031C14.8103 11.7888 14.515 11.6671 14.1666 11.666C13.8183 11.6649 13.5233 11.7866 13.2816 12.031C13.04 12.2755 12.9183 12.5705 12.9166 12.916C12.915 13.2616 13.0366 13.5568 13.2816 13.8018C13.5266 14.0468 13.8216 14.1682 14.1666 14.166ZM14.1666 16.666C14.5139 16.666 14.8403 16.5999 15.1458 16.4677C15.4514 16.3355 15.7222 16.1446 15.9583 15.8952C16.0278 15.8119 16.0555 15.7182 16.0416 15.6144C16.0278 15.5105 15.9653 15.4305 15.8541 15.3744C15.5903 15.2494 15.3161 15.1557 15.0316 15.0935C14.7472 15.0313 14.4589 14.9999 14.1666 14.9993C13.8744 14.9988 13.5864 15.0302 13.3025 15.0935C13.0186 15.1569 12.7441 15.2505 12.4791 15.3744C12.368 15.4299 12.3055 15.5099 12.2916 15.6144C12.2778 15.7188 12.3055 15.8124 12.375 15.8952C12.6111 16.1452 12.8819 16.3363 13.1875 16.4685C13.493 16.6007 13.8194 16.6666 14.1666 16.666Z" fill="white"/>
</svg>
