<svg width="20" height="20" viewBox="0 0 20 20" fill="none" xmlns="http://www.w3.org/2000/svg">
<path d="M4.16667 17.5C3.70833 17.5 3.31611 17.3369 2.99 17.0108C2.66389 16.6847 2.50056 16.2922 2.5 15.8333V3.33334C2.5 3.09723 2.58 2.89945 2.74 2.74C2.9 2.58056 3.09778 2.50056 3.33333 2.5C3.56889 2.49945 3.76694 2.57945 3.9275 2.74C4.08806 2.90056 4.16778 3.09834 4.16667 3.33334V15.8333H16.6667C16.9028 15.8333 17.1008 15.9133 17.2608 16.0733C17.4208 16.2333 17.5006 16.4311 17.5 16.6667C17.4994 16.9022 17.4194 17.1003 17.26 17.2608C17.1006 17.4214 16.9028 17.5011 16.6667 17.5H4.16667ZM5.83333 15C5.59722 15 5.39944 14.92 5.24 14.76C5.08056 14.6 5.00056 14.4022 5 14.1667V8.33334C5 8.09722 5.08 7.89945 5.24 7.74C5.4 7.58056 5.59778 7.50056 5.83333 7.5H7.5C7.73611 7.5 7.93417 7.58 8.09417 7.74C8.25417 7.9 8.33389 8.09778 8.33333 8.33334V14.1667C8.33333 14.4028 8.25333 14.6008 8.09333 14.7608C7.93333 14.9208 7.73556 15.0006 7.5 15H5.83333ZM10 15C9.76389 15 9.56611 14.92 9.40667 14.76C9.24722 14.6 9.16722 14.4022 9.16667 14.1667V4.16667C9.16667 3.93056 9.24667 3.73278 9.40667 3.57334C9.56667 3.41389 9.76444 3.33389 10 3.33334H11.6667C11.9028 3.33334 12.1008 3.41334 12.2608 3.57334C12.4208 3.73334 12.5006 3.93111 12.5 4.16667V14.1667C12.5 14.4028 12.42 14.6008 12.26 14.7608C12.1 14.9208 11.9022 15.0006 11.6667 15H10ZM14.1667 15C13.9306 15 13.7328 14.92 13.5733 14.76C13.4139 14.6 13.3339 14.4022 13.3333 14.1667V11.6667C13.3333 11.4306 13.4133 11.2328 13.5733 11.0733C13.7333 10.9139 13.9311 10.8339 14.1667 10.8333H15.8333C16.0694 10.8333 16.2675 10.9133 16.4275 11.0733C16.5875 11.2333 16.6672 11.4311 16.6667 11.6667V14.1667C16.6667 14.4028 16.5867 14.6008 16.4267 14.7608C16.2667 14.9208 16.0689 15.0006 15.8333 15H14.1667Z" fill="white"/>
</svg>
