<svg width="20" height="20" viewBox="0 0 20 20" fill="none" xmlns="http://www.w3.org/2000/svg">
<path d="M3.33335 3.33341H5.83335L7.50002 1.66675H12.5L14.1667 3.33341H16.6667C17.1087 3.33341 17.5326 3.50901 17.8452 3.82157C18.1578 4.13413 18.3334 4.55805 18.3334 5.00008V15.0001C18.3334 15.4421 18.1578 15.866 17.8452 16.1786C17.5326 16.4912 17.1087 16.6667 16.6667 16.6667H3.33335C2.89133 16.6667 2.4674 16.4912 2.15484 16.1786C1.84228 15.866 1.66669 15.4421 1.66669 15.0001V5.00008C1.66669 4.55805 1.84228 4.13413 2.15484 3.82157C2.4674 3.50901 2.89133 3.33341 3.33335 3.33341ZM10 5.83341C8.89495 5.83341 7.83514 6.2724 7.05374 7.0538C6.27234 7.8352 5.83335 8.89501 5.83335 10.0001C5.83335 11.1051 6.27234 12.165 7.05374 12.9464C7.83514 13.7278 8.89495 14.1667 10 14.1667C11.1051 14.1667 12.1649 13.7278 12.9463 12.9464C13.7277 12.165 14.1667 11.1051 14.1667 10.0001C14.1667 8.89501 13.7277 7.8352 12.9463 7.0538C12.1649 6.2724 11.1051 5.83341 10 5.83341ZM10 7.50008C10.6631 7.50008 11.2989 7.76347 11.7678 8.23231C12.2366 8.70115 12.5 9.33704 12.5 10.0001C12.5 10.6631 12.2366 11.299 11.7678 11.7678C11.2989 12.2367 10.6631 12.5001 10 12.5001C9.33698 12.5001 8.70109 12.2367 8.23225 11.7678C7.76341 11.299 7.50002 10.6631 7.50002 10.0001C7.50002 9.33704 7.76341 8.70115 8.23225 8.23231C8.70109 7.76347 9.33698 7.50008 10 7.50008Z" fill="white"/>
</svg>
