<svg width="20" height="20" viewBox="0 0 20 20" fill="none" xmlns="http://www.w3.org/2000/svg">
<path d="M10.4941 19.3801L10.485 19.3817L10.4258 19.4109L10.4091 19.4142L10.3975 19.4109L10.3383 19.3817C10.3294 19.379 10.3227 19.3803 10.3183 19.3859L10.315 19.3942L10.3008 19.7509L10.305 19.7676L10.3133 19.7784L10.4 19.8401L10.4125 19.8434L10.4225 19.8401L10.5091 19.7784L10.5191 19.7651L10.5225 19.7509L10.5083 19.3951C10.5061 19.3862 10.5013 19.3812 10.4941 19.3801ZM10.715 19.2859L10.7041 19.2876L10.55 19.3651L10.5416 19.3734L10.5391 19.3826L10.5541 19.7409L10.5583 19.7509L10.565 19.7567L10.7325 19.8342C10.743 19.837 10.7511 19.8348 10.7566 19.8276L10.76 19.8159L10.7316 19.3042C10.7288 19.2942 10.7233 19.2881 10.715 19.2859ZM10.1191 19.2876C10.1155 19.2853 10.1111 19.2846 10.1069 19.2856C10.1027 19.2865 10.099 19.289 10.0966 19.2926L10.0916 19.3042L10.0633 19.8159C10.0638 19.8259 10.0686 19.8326 10.0775 19.8359L10.09 19.8342L10.2575 19.7567L10.2658 19.7501L10.2691 19.7409L10.2833 19.3826L10.2808 19.3726L10.2725 19.3642L10.1191 19.2876Z" fill="white"/>
<path d="M15 1.66602C15.442 1.66602 15.8659 1.84161 16.1785 2.15417C16.4911 2.46673 16.6666 2.89065 16.6666 3.33268V16.666C16.6666 17.108 16.4911 17.532 16.1785 17.8445C15.8659 18.1571 15.442 18.3327 15 18.3327H4.99998C4.55795 18.3327 4.13403 18.1571 3.82147 17.8445C3.50891 17.532 3.33331 17.108 3.33331 16.666V3.33268C3.33331 2.89065 3.50891 2.46673 3.82147 2.15417C4.13403 1.84161 4.55795 1.66602 4.99998 1.66602H15ZM9.99998 10.8327H7.49998C7.27897 10.8327 7.067 10.9205 6.91072 11.0768C6.75444 11.233 6.66665 11.445 6.66665 11.666C6.66665 11.887 6.75444 12.099 6.91072 12.2553C7.067 12.4116 7.27897 12.4993 7.49998 12.4993H9.99998C10.221 12.4993 10.433 12.4116 10.5892 12.2553C10.7455 12.099 10.8333 11.887 10.8333 11.666C10.8333 11.445 10.7455 11.233 10.5892 11.0768C10.433 10.9205 10.221 10.8327 9.99998 10.8327ZM12.5 6.66602H7.49998C7.28758 6.66625 7.08329 6.74758 6.92884 6.89339C6.77439 7.0392 6.68145 7.23848 6.669 7.45051C6.65655 7.66255 6.72554 7.87133 6.86187 8.03421C6.99819 8.19709 7.19157 8.30176 7.40248 8.32685L7.49998 8.33268H12.5C12.7124 8.33245 12.9167 8.25112 13.0711 8.10531C13.2256 7.9595 13.3185 7.76022 13.331 7.54819C13.3434 7.33615 13.2744 7.12737 13.1381 6.96449C13.0018 6.80161 12.8084 6.69694 12.5975 6.67185L12.5 6.66602Z" fill="white"/>
</svg>
