<svg width="20" height="20" viewBox="0 0 20 20" fill="none" xmlns="http://www.w3.org/2000/svg">
<path d="M11.9937 11.6813C11.9937 12.782 11.1008 13.675 9.99999 13.675C8.89919 13.675 8.00623 12.7821 8.00623 11.6813C8.00623 10.5805 8.89919 9.6875 9.99999 9.6875C11.1008 9.6875 11.9937 10.5805 11.9937 11.6813Z" fill="white"/>
<path d="M10 14.4492C7.97501 14.4492 6.32501 16.0961 6.32501 18.1242C6.32501 18.2961 6.46564 18.4367 6.63751 18.4367H13.3625C13.5344 18.4367 13.675 18.2961 13.675 18.1242C13.675 16.0992 12.025 14.4492 10 14.4492Z" fill="white"/>
<path d="M5.32175 14.1555C6.26551 14.1555 7.03425 13.3867 7.03425 12.443C7.03425 11.4992 6.26549 10.7305 5.32175 10.7305C4.37801 10.7305 3.60925 11.4992 3.60925 12.443C3.60925 13.3867 4.37801 14.1555 5.32175 14.1555Z" fill="white"/>
<path d="M6.91237 15.1348C6.16237 15.9066 5.69987 16.9629 5.69987 18.1254H2.52167C2.34979 18.1254 2.20917 17.9847 2.20917 17.8129C2.20917 16.0941 3.60605 14.6973 5.32157 14.6973C5.90281 14.6973 6.44675 14.8566 6.91237 15.1348Z" fill="white"/>
<path d="M14.6782 14.1555C13.7344 14.1555 12.9657 13.3867 12.9657 12.443C12.9657 11.4992 13.7345 10.7305 14.6782 10.7305C15.6219 10.7305 16.3907 11.4992 16.3907 12.443C16.3907 13.3867 15.6219 14.1555 14.6782 14.1555Z" fill="white"/>
<path d="M13.0876 15.1348C13.8376 15.9066 14.3001 16.9629 14.3001 18.1254H17.4783C17.6502 18.1254 17.7908 17.9847 17.7908 17.8129C17.7908 16.0941 16.3939 14.6973 14.6784 14.6973C14.0971 14.6973 13.5532 14.8566 13.0876 15.1348Z" fill="white"/>
<path d="M12.2907 5.62263C12.2157 5.39139 12.0188 5.22575 11.7813 5.19139L10.9407 5.06639L10.5657 4.31015C10.4594 4.09139 10.2407 3.95703 10.0001 3.95703C9.75943 3.95703 9.54067 4.09141 9.43443 4.31015L9.05631 5.06953L8.22193 5.19141C7.98131 5.22578 7.78755 5.39141 7.71255 5.62265C7.63755 5.85389 7.70005 6.10077 7.87193 6.26953L8.47817 6.86329L8.33442 7.69453C8.29379 7.93203 8.39067 8.16953 8.58442 8.31329C8.77817 8.45705 9.03442 8.47579 9.25004 8.36016L10.0032 7.9664L10.75 8.36016C10.8438 8.41016 10.9438 8.43204 11.0438 8.43204C11.175 8.43204 11.3032 8.39142 11.4157 8.31016C11.6126 8.16641 11.7094 7.93204 11.6657 7.6914L11.5251 6.8539L12.1282 6.26328C12.3001 6.09453 12.3626 5.84766 12.2875 5.6164L12.2907 5.62263Z" fill="white"/>
<path d="M10 3.04062C9.82812 3.04062 9.6875 2.9 9.6875 2.72812V1.875C9.6875 1.70312 9.82812 1.5625 10 1.5625C10.1719 1.5625 10.3125 1.70312 10.3125 1.875V2.72812C10.3125 2.9 10.1719 3.04062 10 3.04062Z" fill="white"/>
<path d="M8.18759 3.79412C8.10634 3.79412 8.02821 3.76287 7.96571 3.7035L7.36259 3.10038C7.24071 2.9785 7.24071 2.78162 7.36259 2.65976C7.48446 2.5379 7.68135 2.53788 7.80321 2.65976L8.40633 3.26288C8.5282 3.38476 8.5282 3.58164 8.40633 3.7035C8.34383 3.766 8.2657 3.79412 8.18445 3.79412H8.18759Z" fill="white"/>
<path d="M11.8124 3.79413C11.7312 3.79413 11.6531 3.76288 11.5906 3.70351C11.4687 3.58163 11.4687 3.38475 11.5906 3.26289L12.1937 2.65977C12.3155 2.53789 12.5124 2.53789 12.6343 2.65977C12.7562 2.78164 12.7562 2.97853 12.6343 3.10039L12.0312 3.70351C11.9687 3.76601 11.8905 3.79413 11.8093 3.79413H11.8124Z" fill="white"/>
</svg>
