<svg width="20" height="20" viewBox="0 0 20 20" fill="none" xmlns="http://www.w3.org/2000/svg">
<path d="M4.66667 1.66602C4.09203 1.66602 3.54093 1.89429 3.1346 2.30062C2.72827 2.70695 2.5 3.25805 2.5 3.83268V7.83268C2.5 8.11721 2.55604 8.39896 2.66493 8.66183C2.77381 8.9247 2.93341 9.16355 3.1346 9.36475C3.54093 9.77108 4.09203 9.99935 4.66667 9.99935H7C7.57464 9.99935 8.12574 9.77108 8.53206 9.36475C8.93839 8.95842 9.16667 8.40732 9.16667 7.83268V3.83268C9.16667 3.25805 8.93839 2.70695 8.53206 2.30062C8.12574 1.89429 7.57464 1.66602 7 1.66602H4.66667ZM4.66667 11.666C4.09203 11.666 3.54093 11.8943 3.1346 12.3006C2.72827 12.7069 2.5 13.258 2.5 13.8327V16.166C2.5 16.7407 2.72827 17.2918 3.1346 17.6981C3.54093 18.1044 4.09203 18.3327 4.66667 18.3327H7C7.57464 18.3327 8.12574 18.1044 8.53206 17.6981C8.93839 17.2918 9.16667 16.7407 9.16667 16.166V13.8327C9.16667 13.258 8.93839 12.7069 8.53206 12.3006C8.12574 11.8943 7.57464 11.666 7 11.666H4.66667ZM13 1.66602C12.4254 1.66602 11.8743 1.89429 11.4679 2.30062C11.0616 2.70695 10.8333 3.25805 10.8333 3.83268V6.16602C10.8333 6.74065 11.0616 7.29175 11.4679 7.69808C11.8743 8.10441 12.4254 8.33268 13 8.33268H15.3333C15.6179 8.33268 15.8996 8.27664 16.1625 8.16776C16.4254 8.05887 16.6642 7.89927 16.8654 7.69808C17.0666 7.49689 17.2262 7.25804 17.3351 6.99516C17.444 6.73229 17.5 6.45055 17.5 6.16602V3.83268C17.5 3.54815 17.444 3.26641 17.3351 3.00354C17.2262 2.74066 17.0666 2.50181 16.8654 2.30062C16.6642 2.09942 16.4254 1.93983 16.1625 1.83094C15.8996 1.72206 15.6179 1.66602 15.3333 1.66602H13ZM13 9.99935C12.4254 9.99935 11.8743 10.2276 11.4679 10.634C11.0616 11.0403 10.8333 11.5914 10.8333 12.166V16.166C10.8333 16.7407 11.0616 17.2918 11.4679 17.6981C11.8743 18.1044 12.4254 18.3327 13 18.3327H15.3333C15.6179 18.3327 15.8996 18.2766 16.1625 18.1678C16.4254 18.0589 16.6642 17.8993 16.8654 17.6981C17.0666 17.4969 17.2262 17.258 17.3351 16.9952C17.444 16.7323 17.5 16.4505 17.5 16.166V12.166C17.5 11.8815 17.444 11.5997 17.3351 11.3369C17.2262 11.074 17.0666 10.8351 16.8654 10.634C16.6642 10.4328 16.4254 10.2732 16.1625 10.1643C15.8996 10.0554 15.6179 9.99935 15.3333 9.99935H13Z" fill="white"/>
</svg>
