<svg width="20" height="20" viewBox="0 0 20 20" fill="none" xmlns="http://www.w3.org/2000/svg">
<path d="M15 2.5C15.884 2.5 16.7319 2.85119 17.357 3.47631C17.9821 4.10143 18.3333 4.94928 18.3333 5.83333V12.5C18.3333 13.3841 17.9821 14.2319 17.357 14.857C16.7319 15.4821 15.884 15.8333 15 15.8333H11.0633L7.09496 18.2142C6.97545 18.2859 6.83986 18.3265 6.7006 18.3322C6.56135 18.338 6.42287 18.3088 6.29784 18.2472C6.17282 18.1856 6.06524 18.0936 5.98495 17.9796C5.90467 17.8657 5.85424 17.7335 5.83829 17.595L5.83329 17.5V15.8333H4.99996C4.14476 15.8333 3.32227 15.5046 2.70262 14.9152C2.08296 14.3258 1.71355 13.5208 1.67079 12.6667L1.66663 12.5V5.83333C1.66663 4.94928 2.01782 4.10143 2.64294 3.47631C3.26806 2.85119 4.1159 2.5 4.99996 2.5H15ZM11.6666 10H6.66663C6.44561 10 6.23365 10.0878 6.07737 10.2441C5.92109 10.4004 5.83329 10.6123 5.83329 10.8333C5.83329 11.0543 5.92109 11.2663 6.07737 11.4226C6.23365 11.5789 6.44561 11.6667 6.66663 11.6667H11.6666C11.8876 11.6667 12.0996 11.5789 12.2559 11.4226C12.4122 11.2663 12.5 11.0543 12.5 10.8333C12.5 10.6123 12.4122 10.4004 12.2559 10.2441C12.0996 10.0878 11.8876 10 11.6666 10ZM13.3333 6.66667H6.66663C6.44561 6.66667 6.23365 6.75446 6.07737 6.91074C5.92109 7.06703 5.83329 7.27899 5.83329 7.5C5.83329 7.72101 5.92109 7.93298 6.07737 8.08926C6.23365 8.24554 6.44561 8.33333 6.66663 8.33333H13.3333C13.5543 8.33333 13.7663 8.24554 13.9225 8.08926C14.0788 7.93298 14.1666 7.72101 14.1666 7.5C14.1666 7.27899 14.0788 7.06703 13.9225 6.91074C13.7663 6.75446 13.5543 6.66667 13.3333 6.66667Z" fill="white"/>
</svg>
