<svg width="20" height="20" viewBox="0 0 20 20" fill="none" xmlns="http://www.w3.org/2000/svg">
<path d="M15.9971 11.4732L17.6102 14.2679C17.6768 14.3829 17.7144 14.5124 17.7199 14.6452C17.7253 14.778 17.6985 14.9101 17.6416 15.0303C17.5847 15.1504 17.4994 15.2549 17.3932 15.3347C17.287 15.4146 17.1629 15.4675 17.0317 15.4888L16.939 15.4978L16.8471 15.497L14.4406 15.3411L13.3714 17.504C13.3135 17.6213 13.2284 17.723 13.1232 17.8007C13.018 17.8784 12.8958 17.9298 12.7667 17.9507C12.6376 17.9715 12.5054 17.9613 12.3811 17.9207C12.2568 17.8801 12.1439 17.8104 12.052 17.7173L11.9848 17.6402L11.9257 17.5499L10.3109 14.7545C11.4475 14.683 12.5522 14.3497 13.5387 13.7805C14.5251 13.2112 15.3665 12.4216 15.9971 11.4732ZM9.37881 14.7545L7.76568 17.5508C7.70044 17.6642 7.60902 17.7604 7.49904 17.8313C7.38906 17.9022 7.26371 17.9458 7.13347 17.9584C7.00322 17.971 6.87184 17.9523 6.75031 17.9038C6.62877 17.8553 6.52059 17.7784 6.43481 17.6796L6.37245 17.5975L6.31994 17.504L5.24999 15.3419L2.84507 15.4978C2.71254 15.5066 2.57987 15.483 2.45847 15.4291C2.33707 15.3753 2.23055 15.2927 2.14808 15.1886C2.0656 15.0845 2.00963 14.962 1.98497 14.8314C1.96031 14.7009 1.9677 14.5664 2.0065 14.4394L2.03932 14.3516L2.08035 14.2695L3.69512 11.4724C4.32528 12.4208 5.16621 13.2105 6.15218 13.78C7.13815 14.3495 8.24246 14.6825 9.37881 14.7545ZM9.8465 1.64102L10.0434 1.6443C11.5318 1.69536 12.9421 2.32251 13.9769 3.39345C15.0117 4.46439 15.5901 5.8954 15.5901 7.38461L15.5876 7.54297L15.5819 7.70051L15.5671 7.90154L15.5458 8.1001L15.5261 8.24615C15.472 8.60031 15.3849 8.94863 15.266 9.28656L15.1708 9.53928L15.0453 9.82482C14.5808 10.8143 13.8435 11.6508 12.9202 12.2359C11.9969 12.8211 10.9258 13.1306 9.83262 13.1282C8.73949 13.1258 7.66974 12.8115 6.749 12.2223C5.82826 11.6331 5.09474 10.7934 4.6346 9.80184L4.52794 9.55815L4.48527 9.44902L4.41963 9.27097L4.34168 9.02974C4.31385 8.93632 4.28841 8.8422 4.26537 8.74748L4.21614 8.52513L4.17594 8.30277L4.15953 8.18871L4.12753 7.92369L4.10784 7.6242L4.10291 7.38461C4.10289 5.8954 4.68129 4.46439 5.7161 3.39345C6.75092 2.32251 8.16124 1.69536 9.64958 1.6443L9.8465 1.64102Z" fill="white"/>
</svg>
