<svg width="20" height="20" viewBox="0 0 20 20" fill="none" xmlns="http://www.w3.org/2000/svg">
<path d="M10 1.66602C8.78442 1.66602 7.61864 2.1489 6.75909 3.00844C5.89955 3.86798 5.41667 5.03377 5.41667 6.24935C5.41667 7.46492 5.89955 8.63071 6.75909 9.49026C7.61864 10.3498 8.78442 10.8327 10 10.8327C11.2156 10.8327 12.3814 10.3498 13.2409 9.49026C14.1004 8.63071 14.5833 7.46492 14.5833 6.24935C14.5833 5.03377 14.1004 3.86798 13.2409 3.00844C12.3814 2.1489 11.2156 1.66602 10 1.66602ZM6.66667 11.666C5.5616 11.666 4.50179 12.105 3.72039 12.8864C2.93899 13.6678 2.5 14.7276 2.5 15.8327V18.3327H17.5V15.8327C17.5 14.7276 17.061 13.6678 16.2796 12.8864C15.4982 12.105 14.4384 11.666 13.3333 11.666H12.1817L10 16.0293L7.81833 11.666H6.66667Z" fill="white"/>
</svg>
