<svg width="16" height="16" viewBox="0 0 16 16" fill="none" xmlns="http://www.w3.org/2000/svg">
<path d="M11.0187 0.75C11.0187 0.551088 11.0977 0.360322 11.2384 0.21967C11.379 0.0790175 11.5698 0 11.7687 0H14.2687C14.4676 0 14.6584 0.0790175 14.799 0.21967C14.9397 0.360322 15.0187 0.551088 15.0187 0.75V3.25C15.0187 3.44891 14.9397 3.63968 14.799 3.78033C14.6584 3.92098 14.4676 4 14.2687 4C14.0698 4 13.879 3.92098 13.7384 3.78033C13.5977 3.63968 13.5187 3.44891 13.5187 3.25V2.56L9.04871 7.03C8.90808 7.17045 8.71746 7.24934 8.51871 7.24934C8.31996 7.24934 8.12933 7.17045 7.98871 7.03L5.51871 4.56L1.29871 8.78C1.23005 8.85369 1.14725 8.91279 1.05525 8.95378C0.963247 8.99477 0.863934 9.01682 0.763231 9.01859C0.662528 9.02037 0.562499 9.00184 0.469111 8.96412C0.375723 8.9264 0.290889 8.87026 0.21967 8.79904C0.148451 8.72782 0.0923066 8.64299 0.0545856 8.5496C0.0168646 8.45621 -0.00166006 8.35618 0.000116721 8.25548C0.00189351 8.15477 0.0239355 8.05546 0.0649275 7.96346C0.105919 7.87146 0.165022 7.78866 0.238708 7.72L4.98871 2.97C5.12933 2.82955 5.31996 2.75066 5.51871 2.75066C5.71746 2.75066 5.90808 2.82955 6.04871 2.97L8.51871 5.44L12.4587 1.5H11.7687C11.5698 1.5 11.379 1.42098 11.2384 1.28033C11.0977 1.13968 11.0187 0.948912 11.0187 0.75ZM0.768708 12C0.967621 12 1.15839 12.079 1.29904 12.2197C1.43969 12.3603 1.51871 12.5511 1.51871 12.75V15.25C1.51871 15.4489 1.43969 15.6397 1.29904 15.7803C1.15839 15.921 0.967621 16 0.768708 16C0.569796 16 0.37903 15.921 0.238378 15.7803C0.0977259 15.6397 0.0187084 15.4489 0.0187084 15.25V12.75C0.0187084 12.5511 0.0977259 12.3603 0.238378 12.2197C0.37903 12.079 0.569796 12 0.768708 12ZM5.51871 9.75C5.51871 9.55109 5.43969 9.36032 5.29904 9.21967C5.15839 9.07902 4.96762 9 4.76871 9C4.5698 9 4.37903 9.07902 4.23838 9.21967C4.09773 9.36032 4.01871 9.55109 4.01871 9.75V15.25C4.01871 15.4489 4.09773 15.6397 4.23838 15.7803C4.37903 15.921 4.5698 16 4.76871 16C4.96762 16 5.15839 15.921 5.29904 15.7803C5.43969 15.6397 5.51871 15.4489 5.51871 15.25V9.75ZM8.76871 11C8.96762 11 9.15839 11.079 9.29904 11.2197C9.43969 11.3603 9.51871 11.5511 9.51871 11.75V15.25C9.51871 15.4489 9.43969 15.6397 9.29904 15.7803C9.15839 15.921 8.96762 16 8.76871 16C8.5698 16 8.37903 15.921 8.23838 15.7803C8.09773 15.6397 8.01871 15.4489 8.01871 15.25V11.75C8.01871 11.5511 8.09773 11.3603 8.23838 11.2197C8.37903 11.079 8.5698 11 8.76871 11ZM13.5187 7.75C13.5187 7.55109 13.4397 7.36032 13.299 7.21967C13.1584 7.07902 12.9676 7 12.7687 7C12.5698 7 12.379 7.07902 12.2384 7.21967C12.0977 7.36032 12.0187 7.55109 12.0187 7.75V15.25C12.0187 15.4489 12.0977 15.6397 12.2384 15.7803C12.379 15.921 12.5698 16 12.7687 16C12.9676 16 13.1584 15.921 13.299 15.7803C13.4397 15.6397 13.5187 15.4489 13.5187 15.25V7.75Z" fill="white"/>
</svg>
